<svg width="11" height="11" viewBox="0 0 11 11" fill="none" xmlns="http://www.w3.org/2000/svg">
<g clip-path="url(#clip0_2109_9159)">
<path fill-rule="evenodd" clip-rule="evenodd" d="M1.80957 9.83333C1.1204 9.83333 0.55957 9.2725 0.55957 8.58333V4.41667C0.55957 3.7275 1.1204 3.16667 1.80957 3.16667H3.05957V2.75C3.05957 2.06083 3.6204 1.5 4.30957 1.5H5.97624C6.6654 1.5 7.22624 2.06083 7.22624 2.75V3.16667H8.47624C9.1654 3.16667 9.72624 3.7275 9.72624 4.41667V8.58333C9.72624 9.2725 9.1654 9.83333 8.47624 9.83333H1.80957ZM6.3929 3.16667V2.75C6.3929 2.52042 6.20624 2.33333 5.97624 2.33333H4.30957C4.07999 2.33333 3.8929 2.52042 3.8929 2.75V3.16667H6.3929ZM3.8929 4H6.3929V9H3.8929V4ZM3.05957 4H1.80957C1.57999 4 1.3929 4.18708 1.3929 4.41667V8.58333C1.3929 8.81333 1.57999 9 1.80957 9H3.05957V4ZM7.22624 4V9H8.47624C8.70624 9 8.8929 8.81333 8.8929 8.58333V4.41667C8.8929 4.18708 8.70624 4 8.47624 4H7.22624Z" fill="#FEFEFE"/>
</g>
<defs>
<clipPath id="clip0_2109_9159">
<rect width="10" height="10" fill="white" transform="translate(0.142883 0.666656)"/>
</clipPath>
</defs>
</svg>
