<svg width="11" height="11" viewBox="0 0 11 11" fill="none" xmlns="http://www.w3.org/2000/svg">
<g clip-path="url(#clip0_2109_9163)">
<path fill-rule="evenodd" clip-rule="evenodd" d="M6.39288 3.58334H3.89288C3.4333 3.58334 3.05955 3.20959 3.05955 2.75001H2.64288C2.4133 2.75001 2.22622 2.93709 2.22622 3.16668V9.00001C2.22622 9.23001 2.4133 9.41668 2.64288 9.41668H7.64288C7.87288 9.41668 8.05955 9.23001 8.05955 9.00001V8.79168C8.05955 8.56126 8.2458 8.37501 8.47622 8.37501C8.70663 8.37501 8.89288 8.56126 8.89288 8.79168V9.00001C8.89288 9.68918 8.33205 10.25 7.64288 10.25H2.64288C1.95372 10.25 1.39288 9.68918 1.39288 9.00001V3.16668C1.39288 2.47751 1.95372 1.91668 2.64288 1.91668H3.05955C3.05955 1.45709 3.4333 1.08334 3.89288 1.08334H6.39288C6.85247 1.08334 7.22622 1.45709 7.22622 1.91668H7.64288C8.08788 1.91709 8.50247 2.15668 8.72455 2.54168C8.83997 2.74084 8.77163 2.99584 8.57288 3.11084C8.50663 3.14876 8.43497 3.16668 8.36413 3.16668C8.21997 3.16668 8.07997 3.09209 8.0033 2.95834C7.92913 2.83001 7.79038 2.75001 7.64247 2.75001H7.22622C7.22622 3.20959 6.85247 3.58334 6.39288 3.58334ZM6.39288 1.91668H3.89247L3.89267 2.31984C3.89281 2.32432 3.89288 2.32882 3.89288 2.33334C3.89288 2.33772 3.89282 2.34208 3.89268 2.34643L3.89288 2.75001H6.39288V1.91668Z" fill="#FEFEFE"/>
<path fill-rule="evenodd" clip-rule="evenodd" d="M5.55955 8.58335C5.45039 8.58335 5.34414 8.54043 5.26539 8.46168C5.16122 8.35793 5.11955 8.20793 5.15539 8.06543L5.5683 6.4196C5.58664 6.34668 5.62414 6.28001 5.67747 6.22668L7.52372 4.37627C8.01205 3.88877 8.86289 3.88877 9.35039 4.37627C9.59455 4.62001 9.72872 4.9446 9.72872 5.2896C9.72872 5.6346 9.59455 5.95877 9.35039 6.20293L7.49997 8.04543C7.44705 8.09793 7.3808 8.13585 7.3083 8.15418L5.66247 8.57085C5.62789 8.57918 5.59372 8.58335 5.55955 8.58335ZM6.34872 6.73376L6.1333 7.5921L6.99247 7.3746L8.76164 5.61376C8.93955 5.43543 8.93955 5.14502 8.7608 4.96585C8.58747 4.79293 8.2858 4.79293 8.11247 4.96585L6.34872 6.73376Z" fill="#FEFEFE"/>
<path d="M3.47622 8.58334H3.89288C4.12288 8.58334 4.30955 8.39709 4.30955 8.16668C4.30955 7.93626 4.12288 7.75001 3.89288 7.75001H3.47622C3.24622 7.75001 3.05955 7.93626 3.05955 8.16668C3.05955 8.39709 3.24622 8.58334 3.47622 8.58334Z" fill="#FEFEFE"/>
</g>
<defs>
<clipPath id="clip0_2109_9163">
<rect width="10" height="10" fill="white" transform="translate(0.142883 0.666656)"/>
</clipPath>
</defs>
</svg>
